<?xml version="1.0" encoding="UTF-8"?>
<!-- Created with Inkscape (http://www.inkscape.org/) -->
<svg id="svg5" width="210mm" height="297mm" version="1.1" viewBox="0 0 210 297" xmlns="http://www.w3.org/2000/svg">
 <g id="layer1">
  <path id="path2299-0" d="m48 100v4z" fill="none" stroke="#000" stroke-width=".5"/>
  <path id="path2303-4" d="m48 116v4" fill="none" stroke="#000" stroke-width=".5"/>
  <path id="path2299-3-8" d="m48 104v4z" fill="none" stroke="#000" stroke-width=".5"/>
  <path id="path2299-6-71" d="m48 112v4z" fill="none" stroke="#000" stroke-width=".5"/>
  <path id="path2299-7-7" d="m48 108v4z" fill="none" stroke="#000" stroke-width=".5"/>
  <path id="path2299-3-5-2" d="m52 104v4z" fill="none" stroke="#000" stroke-width=".2"/>
  <path id="path2299-6-6-2" d="m52 112v4z" fill="none" stroke="#000" stroke-width=".2"/>
  <path id="path2299-7-2-6" d="m52 108v4z" fill="none" stroke="#000" stroke-width=".2"/>
  <path id="path2299-3-2-6" d="m56 104v4z" fill="none" stroke="#000" stroke-width=".2"/>
  <path id="path2299-93-9" d="m60 100v4z" fill="none" stroke="#000" stroke-width=".2"/>
  <path id="path2303-6-4" d="m60 116v4" fill="none" stroke="#000" stroke-width=".2"/>
  <path id="path2299-7-6-9" d="m60 108v4z" fill="none" stroke="#000" stroke-width=".2"/>
  <path id="path2299-6-9-1" d="m64 112v4z" fill="none" stroke="#000" stroke-width=".2"/>
  <path id="path2299-2-5" d="m68 100v4z" fill="none" stroke="#000" stroke-width=".2"/>
  <path id="path2303-37-9" d="m68 116v4" fill="none" stroke="#000" stroke-width=".2"/>
  <path id="path2299-7-28-6" d="m68 108v4z" fill="none" stroke="#000" stroke-width=".2"/>
  <path id="path2299-97-7" d="m72 100v4z" fill="none" stroke="#000" stroke-width=".5"/>
  <path id="path2303-36-3" d="m72 116v4" fill="none" stroke="#000" stroke-width=".5"/>
  <path id="path2299-3-1-6" d="m72 104v4z" fill="none" stroke="#000" stroke-width=".5"/>
  <path id="path2299-6-29-5" d="m72 112v4z" fill="none" stroke="#000" stroke-width=".5"/>
  <path id="path2299-7-3-6" d="m72 108v4z" fill="none" stroke="#000" stroke-width=".5"/>
  <path id="path2303-19-9" d="m48 120v4" fill="none" stroke="#000" stroke-width=".5"/>
  <path id="path2303-19-7-4" d="m56 120v4" fill="none" stroke="#000" stroke-width=".2"/>
  <path id="path2303-19-8-8" d="m60 120v4" fill="none" stroke="#000" stroke-width=".2"/>
  <path id="path2303-19-0-2" d="m64 120v4" fill="none" stroke="#000" stroke-width=".2"/>
  <path id="path2303-19-3-9" d="m72 120v4" fill="none" stroke="#000" stroke-width=".5"/>
  <path id="path3322-6-39" d="m48 124h4" fill="none" stroke="#000" stroke-width=".5"/>
  <path id="path3322-1-0" d="m52 124h4" fill="none" stroke="#000" stroke-width=".5"/>
  <path id="path3322-0-8" d="m56 124h4" fill="none" stroke="#000" stroke-width=".5"/>
  <path id="path3322-63-85" d="m60 124h4" fill="none" stroke="#000" stroke-width=".5"/>
  <path id="path3322-2-0" d="m64 124h4" fill="none" stroke="#000" stroke-width=".5"/>
  <path id="path3322-06-9" d="m68 124h4" fill="none" stroke="#000" stroke-width=".5"/>
  <path id="path3322-0-5-8" d="m56 116h4" fill="none" stroke="#000" stroke-width=".2"/>
  <path id="path3322-06-6-1" d="m68 116h4" fill="none" stroke="#000" stroke-width=".2"/>
  <path id="path3322-1-6-5" d="m52 120h4" fill="none" stroke="#000" stroke-width=".2"/>
  <path id="path3322-63-3-8" d="m60 120h4" fill="none" stroke="#000" stroke-width=".2"/>
  <path id="path3322-0-6-7" d="m56 108h4" fill="none" stroke="#000" stroke-width=".2"/>
  <path id="path3322-63-8-6" d="m60 108h4" fill="none" stroke="#000" stroke-width=".2"/>
  <path id="path3322-06-4-1" d="m68 108h4" fill="none" stroke="#000" stroke-width=".2"/>
  <path id="path3322-6-3-7" d="m48 104h4" fill="none" stroke="#000" stroke-width=".2"/>
  <path id="path3322-0-4-9" d="m56 104h4" fill="none" stroke="#000" stroke-width=".2"/>
  <path id="path3322-63-9-6" d="m60 104h4" fill="none" stroke="#000" stroke-width=".2"/>
  <path id="path3322-6-8-7" d="m48 100h4" fill="none" stroke="#000" stroke-width=".5"/>
  <path id="path3322-1-9-8" d="m52 100h4" fill="none" stroke="#000" stroke-width=".5"/>
  <path id="path3322-0-2-5" d="m56 100h4" fill="none" stroke="#000" stroke-width=".5"/>
  <path id="path3322-63-6-7" d="m60 100h4" fill="none" stroke="#000" stroke-width=".5"/>
  <path id="path3322-2-6-4" d="m64 100h4" fill="none" stroke="#000" stroke-width=".5"/>
  <path id="path3322-06-49-1" d="m68 100h4" fill="none" stroke="#000" stroke-width=".5"/>
  <path id="path3322-0-7-3-8" d="m52 112h4" fill="none" stroke="#000" stroke-width=".2"/>
  <path id="path3322-63-44-0" d="m64 112h4" fill="none" stroke="#000" stroke-width=".2"/>
  <rect id="rect31-3-7" x="143.5" y="23.5" width="33" height="33" fill="none" stroke="#000" stroke-linecap="round"/>
  <path id="path2299" d="m148 28v4z" fill="none" stroke="#000" stroke-width=".5"/>
  <path id="path2303" d="m148 44v4" fill="none" stroke="#000" stroke-width=".5"/>
  <path id="path2299-3" d="m148 32v4z" fill="none" stroke="#000" stroke-width=".5"/>
  <path id="path2299-6" d="m148 40v4z" fill="none" stroke="#000" stroke-width=".5"/>
  <path id="path2299-7" d="m148 36v4z" fill="none" stroke="#000" stroke-width=".5"/>
  <path id="path2299-5" d="m152 28v4z" fill="none" stroke="#000" stroke-width=".2"/>
  <path id="path2303-3" d="m152 44v4" fill="none" stroke="#000" stroke-width=".2"/>
  <path id="path2299-3-5" d="m152 32v4z" fill="none" stroke="#000" stroke-width=".2"/>
  <path id="path2299-6-6" d="m152 40v4z" fill="none" stroke="#000" stroke-width=".2"/>
  <path id="path2299-7-2" d="m152 36v4z" fill="none" stroke="#000" stroke-width=".2"/>
  <path id="path2299-9" d="m156 28v4z" fill="none" stroke="#000" stroke-width=".2"/>
  <path id="path2303-1" d="m156 44v4" fill="none" stroke="#000" stroke-width=".2"/>
  <path id="path2299-3-2" d="m156 32v4z" fill="none" stroke="#000" stroke-width=".2"/>
  <path id="path2299-6-7" d="m156 40v4z" fill="none" stroke="#000" stroke-width=".2"/>
  <path id="path2299-7-0" d="m156 36v4z" fill="none" stroke="#000" stroke-width=".2"/>
  <path id="path2299-93" d="m160 28v4z" fill="none" stroke="#000" stroke-width=".2"/>
  <path id="path2303-6" d="m160 44v4" fill="none" stroke="#000" stroke-width=".2"/>
  <path id="path2299-3-0" d="m160 32v4z" fill="none" stroke="#000" stroke-width=".2"/>
  <path id="path2299-6-62" d="m160 40v4z" fill="none" stroke="#000" stroke-width=".2"/>
  <path id="path2299-7-6" d="m160 36v4z" fill="none" stroke="#000" stroke-width=".2"/>
  <path id="path2299-1" d="m164 28v4z" fill="none" stroke="#000" stroke-width=".2"/>
  <path id="path2303-8" d="m164 44v4" fill="none" stroke="#000" stroke-width=".2"/>
  <path id="path2299-3-7" d="m164 32v4z" fill="none" stroke="#000" stroke-width=".2"/>
  <path id="path2299-6-9" d="m164 40v4z" fill="none" stroke="#000" stroke-width=".2"/>
  <path id="path2299-7-20" d="m164 36v4z" fill="none" stroke="#000" stroke-width=".2"/>
  <path id="path2299-2" d="m168 28v4z" fill="none" stroke="#000" stroke-width=".2"/>
  <path id="path2303-37" d="m168 44v4" fill="none" stroke="#000" stroke-width=".2"/>
  <path id="path2299-3-59" d="m168 32v4z" fill="none" stroke="#000" stroke-width=".2"/>
  <path id="path2299-6-2" d="m168 40v4z" fill="none" stroke="#000" stroke-width=".2"/>
  <path id="path2299-7-28" d="m168 36v4z" fill="none" stroke="#000" stroke-width=".2"/>
  <path id="path2299-97" d="m172 28v4z" fill="none" stroke="#000" stroke-width=".5"/>
  <path id="path2303-36" d="m172 44v4" fill="none" stroke="#000" stroke-width=".5"/>
  <path id="path2299-3-1" d="m172 32v4z" fill="none" stroke="#000" stroke-width=".5"/>
  <path id="path2299-6-29" d="m172 40v4z" fill="none" stroke="#000" stroke-width=".5"/>
  <path id="path2299-7-3" d="m172 36v4z" fill="none" stroke="#000" stroke-width=".5"/>
  <path id="path2303-19-4" d="m152 48v4" fill="none" stroke="#000" stroke-width=".2"/>
  <path id="path2303-19" d="m148 48v4" fill="none" stroke="#000" stroke-width=".5"/>
  <path id="path2303-19-7" d="m156 48v4" fill="none" stroke="#000" stroke-width=".2"/>
  <path id="path2303-19-8" d="m160 48v4" fill="none" stroke="#000" stroke-width=".2"/>
  <path id="path2303-19-45" d="m168 48v4" fill="none" stroke="#000" stroke-width=".2"/>
  <path id="path2303-19-0" d="m164 48v4" fill="none" stroke="#000" stroke-width=".2"/>
  <path id="path2303-19-3" d="m172 48v4" fill="none" stroke="#000" stroke-width=".5"/>
  <path id="path3322-6" d="m148 52h4" fill="none" stroke="#000" stroke-width=".5"/>
  <path id="path3322-1" d="m152 52h4" fill="none" stroke="#000" stroke-width=".5"/>
  <path id="path3322-0" d="m156 52h4" fill="none" stroke="#000" stroke-width=".5"/>
  <path id="path3322-63" d="m160 52h4" fill="none" stroke="#000" stroke-width=".5"/>
  <path id="path3322-2" d="m164 52h4" fill="none" stroke="#000" stroke-width=".5"/>
  <path id="path3322-06" d="m168 52h4" fill="none" stroke="#000" stroke-width=".5"/>
  <path id="path3322-6-1" d="m148 44h4" fill="none" stroke="#000" stroke-width=".2"/>
  <path id="path3322-1-5" d="m152 44h4" fill="none" stroke="#000" stroke-width=".2"/>
  <path id="path3322-0-5" d="m156 44h4" fill="none" stroke="#000" stroke-width=".2"/>
  <path id="path3322-63-4" d="m160 44h4" fill="none" stroke="#000" stroke-width=".2"/>
  <path id="path3322-2-7" d="m164 44h4" fill="none" stroke="#000" stroke-width=".2"/>
  <path id="path3322-06-6" d="m168 44h4" fill="none" stroke="#000" stroke-width=".2"/>
  <path id="path3322-6-5" d="m148 48h4" fill="none" stroke="#000" stroke-width=".2"/>
  <path id="path3322-1-6" d="m152 48h4" fill="none" stroke="#000" stroke-width=".2"/>
  <path id="path3322-0-9" d="m156 48h4" fill="none" stroke="#000" stroke-width=".2"/>
  <path id="path3322-63-3" d="m160 48h4" fill="none" stroke="#000" stroke-width=".2"/>
  <path id="path3322-2-74" d="m164 48h4" fill="none" stroke="#000" stroke-width=".2"/>
  <path id="path3322-06-5" d="m168 48h4" fill="none" stroke="#000" stroke-width=".2"/>
  <path id="path3322-6-2" d="m148 40h4" fill="none" stroke="#000" stroke-width=".2"/>
  <path id="path3322-1-54" d="m152 40h4" fill="none" stroke="#000" stroke-width=".2"/>
  <path id="path3322-0-7" d="m156 40h4" fill="none" stroke="#000" stroke-width=".2"/>
  <path id="path3322-63-44" d="m160 40h4" fill="none" stroke="#000" stroke-width=".2"/>
  <path id="path3322-2-3" d="m164 40h4" fill="none" stroke="#000" stroke-width=".2"/>
  <path id="path3322-06-0" d="m168 40h4" fill="none" stroke="#000" stroke-width=".2"/>
  <path id="path3322-6-7" d="m148 36h4" fill="none" stroke="#000" stroke-width=".2"/>
  <path id="path3322-1-8" d="m152 36h4" fill="none" stroke="#000" stroke-width=".2"/>
  <path id="path3322-0-6" d="m156 36h4" fill="none" stroke="#000" stroke-width=".2"/>
  <path id="path3322-63-8" d="m160 36h4" fill="none" stroke="#000" stroke-width=".2"/>
  <path id="path3322-2-8" d="m164 36h4" fill="none" stroke="#000" stroke-width=".2"/>
  <path id="path3322-06-4" d="m168 36h4" fill="none" stroke="#000" stroke-width=".2"/>
  <path id="path3322-6-3" d="m148 32h4" fill="none" stroke="#000" stroke-width=".2"/>
  <path id="path3322-1-1" d="m152 32h4" fill="none" stroke="#000" stroke-width=".2"/>
  <path id="path3322-0-4" d="m156 32h4" fill="none" stroke="#000" stroke-width=".2"/>
  <path id="path3322-63-9" d="m160 32h4" fill="none" stroke="#000" stroke-width=".2"/>
  <path id="path3322-2-2" d="m164 32h4" fill="none" stroke="#000" stroke-width=".2"/>
  <path id="path3322-06-06" d="m168 32h4" fill="none" stroke="#000" stroke-width=".2"/>
  <path id="path3322-6-8" d="m148 28h4" fill="none" stroke="#000" stroke-width=".5"/>
  <path id="path3322-1-9" d="m152 28h4" fill="none" stroke="#000" stroke-width=".5"/>
  <path id="path3322-0-2" d="m156 28h4" fill="none" stroke="#000" stroke-width=".5"/>
  <path id="path3322-63-6" d="m160 28h4" fill="none" stroke="#000" stroke-width=".5"/>
  <path id="path3322-2-6" d="m164 28h4" fill="none" stroke="#000" stroke-width=".5"/>
  <path id="path3322-06-49" d="m168 28h4" fill="none" stroke="#000" stroke-width=".5"/>
  <path id="path2299-75" d="m96 100v4z" fill="none" stroke="#000" stroke-width=".5"/>
  <path id="path2303-38" d="m96 116v4" fill="none" stroke="#000" stroke-width=".5"/>
  <path id="path2299-3-83" d="m96 104v4z" fill="none" stroke="#000" stroke-width=".5"/>
  <path id="path2299-6-1" d="m96 112v4z" fill="none" stroke="#000" stroke-width=".5"/>
  <path id="path2299-7-8" d="m96 108v4z" fill="none" stroke="#000" stroke-width=".5"/>
  <path id="path2299-5-9" d="m100 100v4z" fill="none" stroke="#000" stroke-width=".2"/>
  <path id="path2303-3-6" d="m100 116v4" fill="none" stroke="#000" stroke-width=".2"/>
  <path id="path2299-7-2-3" d="m100 108v4z" fill="none" stroke="#000" stroke-width=".2"/>
  <path id="path2303-1-8" d="m104 116v4" fill="none" stroke="#000" stroke-width=".2"/>
  <path id="path2299-6-7-4" d="m104 112v4z" fill="none" stroke="#000" stroke-width=".2"/>
  <path id="path2303-6-8" d="m108 116v4" fill="none" stroke="#000" stroke-width=".2"/>
  <path id="path2299-3-0-9" d="m108 104v4z" fill="none" stroke="#000" stroke-width=".2"/>
  <path id="path2299-6-62-7" d="m108 112v4z" fill="none" stroke="#000" stroke-width=".2"/>
  <path id="path2299-1-6" d="m112 100v4z" fill="none" stroke="#000" stroke-width=".2"/>
  <path id="path2299-6-9-0" d="m112 112v4z" fill="none" stroke="#000" stroke-width=".2"/>
  <path id="path2299-3-59-5" d="m116 104v4z" fill="none" stroke="#000" stroke-width=".2"/>
  <path id="path2299-6-2-4" d="m116 112v4z" fill="none" stroke="#000" stroke-width=".2"/>
  <path id="path2299-97-5" d="m120 100v4z" fill="none" stroke="#000" stroke-width=".5"/>
  <path id="path2303-36-9" d="m120 116v4" fill="none" stroke="#000" stroke-width=".5"/>
  <path id="path2299-3-1-4" d="m120 104v4z" fill="none" stroke="#000" stroke-width=".5"/>
  <path id="path2299-6-29-6" d="m120 112v4z" fill="none" stroke="#000" stroke-width=".5"/>
  <path id="path2299-7-3-9" d="m120 108v4z" fill="none" stroke="#000" stroke-width=".5"/>
  <path id="path2303-19-2" d="m96 120v4" fill="none" stroke="#000" stroke-width=".5"/>
  <path id="path2303-19-8-7" d="m108 120v4" fill="none" stroke="#000" stroke-width=".2"/>
  <path id="path2303-19-45-5" d="m116 120v4" fill="none" stroke="#000" stroke-width=".2"/>
  <path id="path2303-19-0-4" d="m112 120v4" fill="none" stroke="#000" stroke-width=".2"/>
  <path id="path2303-19-3-8" d="m120 120v4" fill="none" stroke="#000" stroke-width=".5"/>
  <path id="path3322-6-12" d="m96 124h4" fill="none" stroke="#000" stroke-width=".5"/>
  <path id="path3322-1-89" d="m100 124h4" fill="none" stroke="#000" stroke-width=".5"/>
  <path id="path3322-0-3" d="m104 124h4" fill="none" stroke="#000" stroke-width=".5"/>
  <path id="path3322-63-68" d="m108 124h4" fill="none" stroke="#000" stroke-width=".5"/>
  <path id="path3322-2-02" d="m112 124h4" fill="none" stroke="#000" stroke-width=".5"/>
  <path id="path3322-06-1" d="m116 124h4" fill="none" stroke="#000" stroke-width=".5"/>
  <path id="path3322-6-1-0" d="m96 116h4" fill="none" stroke="#000" stroke-width=".2"/>
  <path id="path3322-1-5-5" d="m100 116h4" fill="none" stroke="#000" stroke-width=".2"/>
  <path id="path3322-63-4-1" d="m108 116h4" fill="none" stroke="#000" stroke-width=".2"/>
  <path id="path3322-2-3-8" d="m112 112h4" fill="none" stroke="#000" stroke-width=".2"/>
  <path id="path3322-1-8-2" d="m100 108h4" fill="none" stroke="#000" stroke-width=".2"/>
  <path id="path3322-0-6-4" d="m104 108h4" fill="none" stroke="#000" stroke-width=".2"/>
  <path id="path3322-63-8-0" d="m108 108h4" fill="none" stroke="#000" stroke-width=".2"/>
  <path id="path3322-2-8-6" d="m112 108h4" fill="none" stroke="#000" stroke-width=".2"/>
  <path id="path3322-06-4-2" d="m116 108h4" fill="none" stroke="#000" stroke-width=".2"/>
  <path id="path3322-0-4-0" d="m104 104h4" fill="none" stroke="#000" stroke-width=".2"/>
  <path id="path3322-6-8-1" d="m96 100h4" fill="none" stroke="#000" stroke-width=".5"/>
  <path id="path3322-1-9-1" d="m100 100h4" fill="none" stroke="#000" stroke-width=".5"/>
  <path id="path3322-0-2-0" d="m104 100h4" fill="none" stroke="#000" stroke-width=".5"/>
  <path id="path3322-63-6-3" d="m108 100h4" fill="none" stroke="#000" stroke-width=".5"/>
  <path id="path3322-2-6-40" d="m112 100h4" fill="none" stroke="#000" stroke-width=".5"/>
  <path id="path3322-06-49-3" d="m116 100h4" fill="none" stroke="#000" stroke-width=".5"/>
  <rect id="rect31-3-7-1" x="44" y="144" width="32" height="32" fill="none" stroke="#000" stroke-linecap="round" stroke-width=".5"/>
  <path id="path2299-4" d="m48 148v4z" fill="none" stroke="#000" stroke-linejoin="bevel" stroke-width=".5"/>
  <path id="path2303-69" d="m48 164v4" fill="none" stroke="#000" stroke-width=".5"/>
  <path id="path2299-3-4" d="m48 152v4z" fill="none" stroke="#000" stroke-width=".5"/>
  <path id="path2299-6-22" d="m48 160v4z" fill="none" stroke="#000" stroke-width=".5"/>
  <path id="path2299-7-64" d="m48 156v4z" fill="none" stroke="#000" stroke-width=".5"/>
  <path id="path2299-5-1" d="m52 148v4z" fill="none" stroke="#000" stroke-width=".2"/>
  <path id="path2299-6-6-8" d="m52 160v4z" fill="none" stroke="#000" stroke-width=".2"/>
  <path id="path2299-9-2" d="m56 148v4z" fill="none" stroke="#000" stroke-width=".2"/>
  <path id="path2299-3-2-8" d="m56 152v4z" fill="none" stroke="#000" stroke-width=".2"/>
  <path id="path2299-6-7-6" d="m56 160v4z" fill="none" stroke="#000" stroke-width=".2"/>
  <path id="path2299-7-0-8" d="m56 156v4z" fill="none" stroke="#000" stroke-width=".2"/>
  <path id="path2299-3-0-3" d="m60 152v4z" fill="none" stroke="#000" stroke-width=".2"/>
  <path id="path2299-7-6-8" d="m60 156v4z" fill="none" stroke="#000" stroke-width=".2"/>
  <path id="path2299-6-9-6" d="m64 160v4z" fill="none" stroke="#000" stroke-width=".2"/>
  <path id="path2299-7-28-7" d="m68 156v4z" fill="none" stroke="#000" stroke-width=".2"/>
  <path id="path2299-97-9" d="m72 148v4z" fill="none" stroke="#000" stroke-width=".5"/>
  <path id="path2303-36-0" d="m72 164v4" fill="none" stroke="#000" stroke-width=".5"/>
  <path id="path2299-3-1-3" d="m72 152v4z" fill="none" stroke="#000" stroke-width=".5"/>
  <path id="path2299-6-29-3" d="m72 160v4z" fill="none" stroke="#000" stroke-width=".5"/>
  <path id="path2299-7-3-3" d="m72 156v4z" fill="none" stroke="#000" stroke-width=".5"/>
  <path id="path2303-19-32" d="m48 168v4" fill="none" stroke="#000" stroke-width=".5"/>
  <path id="path2303-19-45-2" d="m68 168v4" fill="none" stroke="#000" stroke-width=".2"/>
  <path id="path2303-19-0-6" d="m64 168v4" fill="none" stroke="#000" stroke-width=".2"/>
  <path id="path2303-19-3-5" d="m72 168v4" fill="none" stroke="#000" stroke-width=".5"/>
  <path id="path3322-6-87" d="m48 172h4" fill="none" stroke="#000" stroke-width=".5"/>
  <path id="path3322-1-96" d="m52 172h4" fill="none" stroke="#000" stroke-width=".5"/>
  <path id="path3322-0-0" d="m56 172h4" fill="none" stroke="#000" stroke-width=".5"/>
  <path id="path3322-63-41" d="m60 172h4" fill="none" stroke="#000" stroke-width=".5"/>
  <path id="path3322-2-04" d="m64 172h4" fill="none" stroke="#000" stroke-width=".5"/>
  <path id="path3322-06-8" d="m68 172h4" fill="none" stroke="#000" stroke-width=".5"/>
  <path id="path3322-63-4-2" d="m60 164h4" fill="none" stroke="#000" stroke-width=".2"/>
  <path id="path3322-2-7-4" d="m64 164h4" fill="none" stroke="#000" stroke-width=".2"/>
  <path id="path3322-6-5-9" d="m48 168h4" fill="none" stroke="#000" stroke-width=".2"/>
  <path id="path3322-1-6-3" d="m52 168h4" fill="none" stroke="#000" stroke-width=".2"/>
  <path id="path3322-0-9-9" d="m56 168h4" fill="none" stroke="#000" stroke-width=".2"/>
  <path id="path3322-6-2-0" d="m48 160h4" fill="none" stroke="#000" stroke-width=".2"/>
  <path id="path3322-0-7-7" d="m56 160h4" fill="none" stroke="#000" stroke-width=".2"/>
  <path id="path3322-63-44-8" d="m60 160h4" fill="none" stroke="#000" stroke-width=".2"/>
  <path id="path3322-06-0-1" d="m68 160h4" fill="none" stroke="#000" stroke-width=".2"/>
  <path id="path3322-1-8-4" d="m52 156h4" fill="none" stroke="#000" stroke-width=".2"/>
  <path id="path3322-2-8-5" d="m64 156h4" fill="none" stroke="#000" stroke-width=".2"/>
  <path id="path3322-2-2-9" d="m64 152h4" fill="none" stroke="#000" stroke-width=".2"/>
  <path id="path3322-06-06-3" d="m68 152h4" fill="none" stroke="#000" stroke-width=".2"/>
  <path id="path3322-6-8-5" d="m48 148h4" fill="none" stroke="#000" stroke-linejoin="bevel" stroke-width=".5"/>
  <path id="path3322-1-9-7" d="m52 148h4" fill="none" stroke="#000" stroke-width=".5"/>
  <path id="path3322-0-2-08" d="m56 148h4" fill="none" stroke="#000" stroke-width=".5"/>
  <path id="path3322-63-6-1" d="m60 148h4" fill="none" stroke="#000" stroke-width=".5"/>
  <path id="path3322-2-6-9" d="m64 148h4" fill="none" stroke="#000" stroke-width=".5"/>
  <path id="path3322-06-49-9" d="m68 148h4" fill="none" stroke="#000" stroke-width=".5"/>
  <path id="path2299-13" d="m96 148v4z" fill="none" stroke="#000" stroke-width=".5"/>
  <path id="path2303-7" d="m96 164v4" fill="none" stroke="#000" stroke-width=".5"/>
  <path id="path2299-3-72" d="m96 152v4z" fill="none" stroke="#000" stroke-width=".5"/>
  <path id="path2299-6-64" d="m96 160v4z" fill="none" stroke="#000" stroke-width=".5"/>
  <path id="path2299-7-5" d="m96 156v4z" fill="none" stroke="#000" stroke-width=".5"/>
  <path id="path2299-5-2" d="m100 148v4z" fill="none" stroke="#000" stroke-width=".2"/>
  <path id="path2299-7-2-9" d="m100 156v4z" fill="none" stroke="#000" stroke-width=".2"/>
  <path id="path2299-3-2-5" d="m104 152v4z" fill="none" stroke="#000" stroke-width=".2"/>
  <path id="path2303-6-7" d="m108 164v4" fill="none" stroke="#000" stroke-width=".2"/>
  <path id="path2299-3-0-8" d="m108 152v4z" fill="none" stroke="#000" stroke-width=".2"/>
  <path id="path2299-6-62-8" d="m108 160v4z" fill="none" stroke="#000" stroke-width=".2"/>
  <path id="path2299-7-6-6" d="m108 156v4z" fill="none" stroke="#000" stroke-width=".2"/>
  <path id="path2303-8-4" d="m112 164v4" fill="none" stroke="#000" stroke-width=".2"/>
  <path id="path2303-37-97" d="m116 164v4" fill="none" stroke="#000" stroke-width=".2"/>
  <path id="path2299-6-2-7" d="m116 160v4z" fill="none" stroke="#000" stroke-width=".2"/>
  <path id="path2299-97-53" d="m120 148v4z" fill="none" stroke="#000" stroke-width=".5"/>
  <path id="path2303-36-38" d="m120 164v4" fill="none" stroke="#000" stroke-width=".5"/>
  <path id="path2299-3-1-37" d="m120 152v4z" fill="none" stroke="#000" stroke-width=".5"/>
  <path id="path2299-6-29-9" d="m120 160v4z" fill="none" stroke="#000" stroke-width=".5"/>
  <path id="path2299-7-3-37" d="m120 156v4z" fill="none" stroke="#000" stroke-width=".5"/>
  <path id="path2303-19-4-8" d="m100 168v4" fill="none" stroke="#000" stroke-width=".2"/>
  <path id="path2303-19-74" d="m96 168v4" fill="none" stroke="#000" stroke-width=".5"/>
  <path id="path2303-19-3-88" d="m120 168v4" fill="none" stroke="#000" stroke-width=".5"/>
  <path id="path3322-6-58" d="m96 172h4" fill="none" stroke="#000" stroke-width=".5"/>
  <path id="path3322-1-4" d="m100 172h4" fill="none" stroke="#000" stroke-width=".5"/>
  <path id="path3322-0-37" d="m104 172h4" fill="none" stroke="#000" stroke-width=".5"/>
  <path id="path3322-63-1" d="m108 172h4" fill="none" stroke="#000" stroke-width=".5"/>
  <path id="path3322-2-38" d="m112 172h4" fill="none" stroke="#000" stroke-width=".5"/>
  <path id="path3322-06-09" d="m116 172h4" fill="none" stroke="#000" stroke-width=".5"/>
  <path id="path3322-6-1-7" d="m96 164h4" fill="none" stroke="#000" stroke-width=".2"/>
  <path id="path3322-1-5-9" d="m100 164h4" fill="none" stroke="#000" stroke-width=".2"/>
  <path id="path3322-63-4-3" d="m108 164h4" fill="none" stroke="#000" stroke-width=".2"/>
  <path id="path3322-2-7-2" d="m112 164h4" fill="none" stroke="#000" stroke-width=".2"/>
  <path id="path3322-1-6-7" d="m100 168h4" fill="none" stroke="#000" stroke-width=".2"/>
  <path id="path3322-6-2-2" d="m96 160h4" fill="none" stroke="#000" stroke-width=".2"/>
  <path id="path3322-0-7-75" d="m104 160h4" fill="none" stroke="#000" stroke-width=".2"/>
  <path id="path3322-63-44-1" d="m108 160h4" fill="none" stroke="#000" stroke-width=".2"/>
  <path id="path3322-1-8-7" d="m100 156h4" fill="none" stroke="#000" stroke-width=".2"/>
  <path id="path3322-2-8-1" d="m112 156h4" fill="none" stroke="#000" stroke-width=".2"/>
  <path id="path3322-06-4-7" d="m116 156h4" fill="none" stroke="#000" stroke-width=".2"/>
  <path id="path3322-0-4-08" d="m104 152h4" fill="none" stroke="#000" stroke-width=".2"/>
  <path id="path3322-63-9-5" d="m108 152h4" fill="none" stroke="#000" stroke-width=".2"/>
  <path id="path3322-2-2-1" d="m112 152h4" fill="none" stroke="#000" stroke-width=".2"/>
  <path id="path3322-6-8-6" d="m96 148h4" fill="none" stroke="#000" stroke-width=".5"/>
  <path id="path3322-1-9-2" d="m100 148h4" fill="none" stroke="#000" stroke-width=".5"/>
  <path id="path3322-0-2-1" d="m104 148h4" fill="none" stroke="#000" stroke-width=".5"/>
  <path id="path3322-63-6-9" d="m108 148h4" fill="none" stroke="#000" stroke-width=".5"/>
  <path id="path3322-2-6-6" d="m112 148h4" fill="none" stroke="#000" stroke-width=".5"/>
  <path id="path3322-06-49-4" d="m116 148h4" fill="none" stroke="#000" stroke-width=".5"/>
  <circle id="path19291-0" cx="46" cy="170" r="1.5" fill-rule="evenodd" stroke-width=".26458"/>
  <circle id="path19291-2" cx="58" cy="146" r="1.5" fill-rule="evenodd" stroke-width=".26458"/>
  <circle id="path19291-2-9" cx="50" cy="146" r="1.5" fill-rule="evenodd" stroke-width=".26458"/>
  <circle id="path19291-2-7" cx="94" cy="150" r="1.5" fill-rule="evenodd" stroke-width=".26458"/>
  <circle id="path19291-2-5" cx="98" cy="174" r="1.5" fill-rule="evenodd" stroke-width=".26458"/>
  <circle id="path19291-2-6" cx="122" cy="154" r="1.5" fill-rule="evenodd" stroke-width=".26458"/>
  <circle id="path19291-2-4" cx="50" cy="126" r="1.5" fill-rule="evenodd" stroke-width=".26458"/>
  <circle id="path19291-2-63" cx="70" cy="126" r="1.5" fill-rule="evenodd" stroke-width=".26458"/>
  <circle id="path19291-2-79" cx="70" cy="98" r="1.5" fill-rule="evenodd" stroke-width=".26458"/>
  <circle id="path19291-2-74" cx="94" cy="110" r="1.5" fill-rule="evenodd" stroke-width=".26458"/>
  <circle id="path19291-2-91" cx="122" cy="114" r="1.5" fill-rule="evenodd" stroke-width=".26458"/>
  <circle id="path19291-2-70" cx="106" cy="126" r="1.5" fill-rule="evenodd" stroke-width=".26458"/>
  <rect id="rect31-3-7-1-0" x="44" y="96" width="32" height="32" fill="none" stroke="#000" stroke-linecap="round" stroke-width=".5"/>
  <rect id="rect31-3-7-1-8" x="92" y="96" width="32" height="32" fill="none" stroke="#000" stroke-linecap="round" stroke-width=".5"/>
  <rect id="rect31-3-7-1-5" x="92" y="144" width="32" height="32" fill="none" stroke="#000" stroke-linecap="round" stroke-width=".5"/>
  <path id="path22143" transform="matrix(0 -.26458 .26458 0 80 208)" d="m514.02 257.01 13.093 22.677h-26.185z" fill-rule="evenodd"/>
  <path id="path22143-3" transform="matrix(.26458 0 0 .26458 24 -4)" d="m514.02 257.01 13.093 22.677h-26.185z" fill-rule="evenodd"/>
  <path id="path22143-9" transform="matrix(0 .26458 -.26458 0 240 -64)" d="m514.02 257.01 13.093 22.677h-26.185z" fill-rule="evenodd"/>
  <path id="path22143-4" transform="matrix(-.26458 0 0 -.26458 296 148)" d="m514.02 257.01 13.093 22.677h-26.185z" fill-rule="evenodd"/>
  <rect id="rect22295" x="136" y="16" width="48" height="68" fill="none" stroke="#000" stroke-width=".26458"/>
 </g>
</svg>
