<?xml version="1.0" encoding="UTF-8" standalone="no"?>
<!-- Created with Inkscape (http://www.inkscape.org/) -->

<svg
   width="24"
   height="24"
   viewBox="0 0 24 24"
   version="1.1"
   id="svg5"
   inkscape:version="1.2 (dc2aedaf03, 2022-05-15)"
   sodipodi:docname="cleaver.svg"
   inkscape:export-filename="cleaver.png"
   inkscape:export-xdpi="384"
   inkscape:export-ydpi="384"
   xml:space="preserve"
   xmlns:inkscape="http://www.inkscape.org/namespaces/inkscape"
   xmlns:sodipodi="http://sodipodi.sourceforge.net/DTD/sodipodi-0.dtd"
   xmlns="http://www.w3.org/2000/svg"
   xmlns:svg="http://www.w3.org/2000/svg"><sodipodi:namedview
     id="namedview7"
     pagecolor="#ffffff"
     bordercolor="#000000"
     borderopacity="0.25"
     inkscape:showpageshadow="2"
     inkscape:pageopacity="0.0"
     inkscape:pagecheckerboard="0"
     inkscape:deskcolor="#d1d1d1"
     inkscape:document-units="px"
     showgrid="false"
     inkscape:zoom="22.627417"
     inkscape:cx="-2.5190679"
     inkscape:cy="12.727922"
     inkscape:window-width="1916"
     inkscape:window-height="709"
     inkscape:window-x="0"
     inkscape:window-y="0"
     inkscape:window-maximized="1"
     inkscape:current-layer="layer1" /><defs
     id="defs2" /><g
     inkscape:label="Layer 1"
     inkscape:groupmode="layer"
     id="layer1"><rect
       style="fill:#000000;fill-opacity:1;stroke-width:0.484181"
       id="rect130"
       width="24"
       height="24"
       x="0"
       y="0" /><path
       style="fill:#ffffff;stroke-width:0.135279"
       d="m 3.8561582,17.942647 v -2.150231 l 0.5279377,-0.445445 c 0.2903693,-0.244994 0.7218398,-0.623485 0.9588296,-0.841092 l 0.4308865,-0.395641 0.5892025,0.860416 c 0.3240572,0.473233 0.5941833,0.880756 0.600273,0.905612 0.019848,0.08095 -2.6595529,3.723996 -3.0762374,4.18261 -0.017361,0.01909 -0.030881,-0.907641 -0.030881,-2.116229 z m 6.4695338,1.62623 c -0.3417042,-0.49346 -1.2272302,-1.791826 -1.2593882,-1.846535 -0.01812,-0.03077 0.0016,-0.06838 0.05594,-0.10638 0.04613,-0.03233 0.277421,-0.213653 0.513924,-0.402943 2.8507842,-2.281694 6.0374252,-6.026245 8.5036332,-9.992444 0.128344,-0.2063946 0.21135,-0.3065126 0.244172,-0.2944951 0.113242,0.041484 2.197293,1.3253243 2.211511,1.3623883 0.03358,0.0875 -0.80948,1.5364955 -1.464847,2.5177108 -1.046103,1.566231 -2.223025,3.048568 -3.696029,4.65515 -0.942021,1.027455 -2.508867,2.532664 -3.507231,3.369272 -0.333793,0.27971 -1.0605,0.851422 -1.258767,0.99029 l -0.113399,0.07943 z M 7.4969093,15.442286 C 6.8712552,14.527475 6.3515219,13.758577 6.3419492,13.733617 6.3263189,13.692887 14.201416,4.5703398 14.3166,4.49575 c 0.03299,-0.021367 0.568631,0.2865236 1.728485,0.9934967 0.924379,0.563442 1.685991,1.0402398 1.692475,1.0595468 0.01307,0.038785 -0.351309,0.6252159 -0.900695,1.4497855 -2.380996,3.573613 -5.071696,6.640024 -7.6354572,8.70164 -0.278763,0.224161 -0.520361,0.407069 -0.536889,0.406463 -0.01655,-5.4e-4 -0.5419555,-0.749584 -1.1676095,-1.664396 z M 14.047913,7.9101376 c 0.746848,-0.3390105 1.316873,-1.6144832 0.973714,-2.1787578 -0.09006,-0.1480843 -0.286729,-0.234551 -0.460329,-0.2023826 -0.469145,0.086931 -1.044134,0.7275502 -1.234559,1.3754543 -0.07498,0.2551182 -0.07444,0.6531124 0.0011,0.8122978 0.125617,0.2647347 0.400357,0.338519 0.720082,0.1933883 z"
       id="path938" /></g></svg>
