<?xml version="1.0" encoding="UTF-8" standalone="no"?>
<!-- Created with Inkscape (http://www.inkscape.org/) -->

<svg
   width="24"
   height="24"
   viewBox="0 0 24 24"
   version="1.1"
   id="svg5"
   inkscape:version="1.2 (dc2aedaf03, 2022-05-15)"
   sodipodi:docname="egg.svg"
   inkscape:export-filename="egg.png"
   inkscape:export-xdpi="384"
   inkscape:export-ydpi="384"
   xml:space="preserve"
   xmlns:inkscape="http://www.inkscape.org/namespaces/inkscape"
   xmlns:sodipodi="http://sodipodi.sourceforge.net/DTD/sodipodi-0.dtd"
   xmlns="http://www.w3.org/2000/svg"
   xmlns:svg="http://www.w3.org/2000/svg"><sodipodi:namedview
     id="namedview7"
     pagecolor="#ffffff"
     bordercolor="#000000"
     borderopacity="0.25"
     inkscape:showpageshadow="2"
     inkscape:pageopacity="0.0"
     inkscape:pagecheckerboard="0"
     inkscape:deskcolor="#d1d1d1"
     inkscape:document-units="px"
     showgrid="false"
     inkscape:zoom="22.627417"
     inkscape:cx="1.0606602"
     inkscape:cy="14.274718"
     inkscape:window-width="1916"
     inkscape:window-height="1065"
     inkscape:window-x="0"
     inkscape:window-y="0"
     inkscape:window-maximized="1"
     inkscape:current-layer="layer1" /><defs
     id="defs2" /><g
     inkscape:label="Layer 1"
     inkscape:groupmode="layer"
     id="layer1"><rect
       style="fill:#000000;fill-opacity:1;stroke-width:0.484181"
       id="rect130"
       width="24"
       height="24"
       x="0"
       y="0" /><path
       d="m 11.954007,5.0111153 c 0.947144,0 1.792447,0.3824798 2.53138,1.0184361 0.914328,0.7921165 1.647602,1.9972657 2.15003,3.33368 0.493699,1.3154036 0.752617,2.7072716 0.764959,4.1122186 0,1.471075 -0.339479,2.796174 -1.07841,3.647132 -0.09618,0.113156 -0.194635,0.213872 -0.291953,0.306663 -1.001461,0.956198 -2.41143,1.44618 -3.814608,1.484654 -1.40318,0.03847 -2.8086214,-0.377953 -3.7942407,-1.235703 C 8.3261003,17.595583 8.2333193,17.506198 8.1439226,17.413403 7.2013037,16.424388 6.790535,14.906919 6.790535,13.271764 6.8026219,11.919769 7.0476338,10.57997 7.514756,9.3111792 7.9809727,8.0347388 8.6531417,6.8963532 9.4678894,6.1189481 10.192112,5.4275419 11.032887,5.0111153 11.954007,5.0111153 Z M 9.0537267,17.07845 c -1.5087938,-8.0448904 -0.7543979,-4.022444 0,0 z"
       id="path867"
       sodipodi:nodetypes="scccccscccccscc"
       style="fill:#ffffff;stroke-width:0.11316" /></g></svg>
