<?xml version="1.0" encoding="UTF-8" standalone="no"?>
<!-- Created with Inkscape (http://www.inkscape.org/) -->

<svg
   width="24"
   height="24"
   viewBox="0 0 24 24"
   version="1.1"
   id="svg5"
   inkscape:version="1.2 (dc2aedaf03, 2022-05-15)"
   sodipodi:docname="egg.svg"
   inkscape:export-filename="egg.png"
   inkscape:export-xdpi="384"
   inkscape:export-ydpi="384"
   xml:space="preserve"
   xmlns:inkscape="http://www.inkscape.org/namespaces/inkscape"
   xmlns:sodipodi="http://sodipodi.sourceforge.net/DTD/sodipodi-0.dtd"
   xmlns="http://www.w3.org/2000/svg"
   xmlns:svg="http://www.w3.org/2000/svg"><sodipodi:namedview
     id="namedview7"
     pagecolor="#ffffff"
     bordercolor="#000000"
     borderopacity="0.25"
     inkscape:showpageshadow="2"
     inkscape:pageopacity="0.0"
     inkscape:pagecheckerboard="0"
     inkscape:deskcolor="#d1d1d1"
     inkscape:document-units="px"
     showgrid="false"
     inkscape:zoom="16"
     inkscape:cx="23.9375"
     inkscape:cy="21.375"
     inkscape:window-width="1916"
     inkscape:window-height="1065"
     inkscape:window-x="0"
     inkscape:window-y="0"
     inkscape:window-maximized="1"
     inkscape:current-layer="layer1" /><defs
     id="defs2" /><g
     inkscape:label="Layer 1"
     inkscape:groupmode="layer"
     id="layer1"><rect
       style="fill:#000000;fill-opacity:1;stroke-width:0.484181"
       id="rect130"
       width="24"
       height="24"
       x="0"
       y="0" /><path
       style="fill:#ffffff;fill-opacity:1;stroke-width:0.0491018"
       d="M 11.47805,20.170536 C 10.114515,19.993803 8.943899,19.422026 7.9874655,18.465592 6.7057965,17.183924 6.1072805,15.472868 6.294666,13.626171 6.4590215,12.006428 7.0392905,10.119646 7.9008545,8.4035365 9.391409,5.434573 11.27792,4.0609559 12.981384,4.7042743 c 1.633934,0.6170602 3.258344,2.8526012 4.269767,5.8761277 0.523499,1.564936 0.703488,2.527414 0.70245,3.756284 -6.5e-4,0.797645 -0.01328,0.930375 -0.129271,1.361136 -0.311726,1.157666 -0.729944,1.898653 -1.53431,2.718441 -0.959867,0.978272 -2.005036,1.5198 -3.314162,1.717151 -0.431048,0.06498 -1.146141,0.0827 -1.497808,0.03712 z"
       id="path7408" /></g></svg>
