<?xml version="1.0" encoding="UTF-8" standalone="no"?>
<!-- Created with Inkscape (http://www.inkscape.org/) -->

<svg
   width="24"
   height="24"
   viewBox="0 0 24 24"
   version="1.1"
   id="svg5"
   inkscape:version="1.2 (dc2aedaf03, 2022-05-15)"
   sodipodi:docname="fire.svg"
   inkscape:export-filename="fire.png"
   inkscape:export-xdpi="384"
   inkscape:export-ydpi="384"
   xml:space="preserve"
   xmlns:inkscape="http://www.inkscape.org/namespaces/inkscape"
   xmlns:sodipodi="http://sodipodi.sourceforge.net/DTD/sodipodi-0.dtd"
   xmlns="http://www.w3.org/2000/svg"
   xmlns:svg="http://www.w3.org/2000/svg"><sodipodi:namedview
     id="namedview7"
     pagecolor="#ffffff"
     bordercolor="#000000"
     borderopacity="0.25"
     inkscape:showpageshadow="2"
     inkscape:pageopacity="0.0"
     inkscape:pagecheckerboard="0"
     inkscape:deskcolor="#d1d1d1"
     inkscape:document-units="px"
     showgrid="false"
     inkscape:zoom="16"
     inkscape:cx="23.9375"
     inkscape:cy="21.3125"
     inkscape:window-width="1916"
     inkscape:window-height="709"
     inkscape:window-x="0"
     inkscape:window-y="0"
     inkscape:window-maximized="1"
     inkscape:current-layer="layer1" /><defs
     id="defs2" /><g
     inkscape:label="Layer 1"
     inkscape:groupmode="layer"
     id="layer1"><rect
       style="fill:#000000;fill-opacity:1;stroke-width:0.484181"
       id="rect130"
       width="24"
       height="24"
       x="0"
       y="0" /><path
       style="fill:#ffffff;fill-opacity:1;stroke-width:0.0587575"
       d="M 11.280734,20.250111 C 9.0145875,20.091297 6.9344895,18.747738 5.9709355,16.820448 5.130981,15.140382 4.9990946,13.309525 5.59214,11.561991 5.7998395,10.94996 6.1658155,10.261032 6.5597565,9.74051 c 0.306331,-0.4047605 0.813608,-0.9491335 0.813608,-0.873106 0,0.017655 -0.051415,0.1815545 -0.114263,0.364216 -0.261039,0.758724 -0.2945545,1.748777 -0.088832,2.624158 0.125352,0.533389 0.5541205,1.387894 0.8626555,1.719209 0.205975,0.221183 0.2984715,0.278543 0.449165,0.278543 0.2678745,0 0.5074535,-0.140612 0.5934935,-0.348331 0.06484,-0.156532 0.052486,-0.242242 -0.104154,-0.722549 C 8.3718585,10.94415 8.442008,9.174738 9.1823715,7.462004 9.9869375,5.6007425 11.66711,4.0219348 13.414945,3.4847822 c 0.134219,-0.041253 0.134978,-0.039072 0.04626,0.1324994 -0.164552,0.3182087 -0.332063,1.0335222 -0.368668,1.5742949 -0.08703,1.285702 0.325907,2.519059 1.152815,3.443252 0.164302,0.1836325 0.674994,0.618382 1.134871,0.9661115 1.035828,0.783225 1.474075,1.222086 1.958134,1.960871 0.66145,1.009525 0.893209,1.693008 0.94644,2.791157 0.09254,1.909016 -0.849325,3.770248 -2.449561,4.840629 -0.878457,0.58759 -2.040747,0.979279 -3.08484,1.039585 -0.291246,0.01682 -0.595641,0.03771 -0.676432,0.04641 -0.08079,0.0087 -0.437742,-0.0046 -0.793225,-0.02947 z m 1.737368,-2.612331 c 0.991686,-0.291286 1.650485,-0.963449 1.906081,-1.944748 0.16449,-0.631518 0.08986,-1.319765 -0.205838,-1.898204 -0.08204,-0.16049 -0.507297,-0.63374 -1.082368,-1.204527 -0.758182,-0.752532 -0.988061,-1.019232 -1.1518,-1.336292 -0.112512,-0.217864 -0.223659,-0.39634 -0.246994,-0.396612 -0.02333,-2.93e-4 -0.08543,0.147435 -0.137993,0.32824 -0.152506,0.5246 -0.124876,1.346919 0.0721,2.1458 0.236656,0.959825 0.227594,1.473307 -0.03563,2.018791 -0.318596,0.660229 -1.017153,1.248603 -1.669435,1.406112 -0.161467,0.03898 -0.16412,0.0451 -0.06647,0.153006 0.203572,0.224944 0.745862,0.552822 1.131967,0.684408 0.473926,0.161515 1.030277,0.177995 1.486374,0.04402 z"
       id="path7342" /></g></svg>
