<?xml version="1.0" encoding="UTF-8" standalone="no"?>
<!-- Created with Inkscape (http://www.inkscape.org/) -->

<svg
   width="24"
   height="24"
   viewBox="0 0 24 24"
   version="1.1"
   id="svg5"
   inkscape:version="1.2 (dc2aedaf03, 2022-05-15)"
   sodipodi:docname="fire.svg"
   inkscape:export-filename="fire.png"
   inkscape:export-xdpi="384"
   inkscape:export-ydpi="384"
   xml:space="preserve"
   xmlns:inkscape="http://www.inkscape.org/namespaces/inkscape"
   xmlns:sodipodi="http://sodipodi.sourceforge.net/DTD/sodipodi-0.dtd"
   xmlns="http://www.w3.org/2000/svg"
   xmlns:svg="http://www.w3.org/2000/svg"><sodipodi:namedview
     id="namedview7"
     pagecolor="#ffffff"
     bordercolor="#000000"
     borderopacity="0.25"
     inkscape:showpageshadow="2"
     inkscape:pageopacity="0.0"
     inkscape:pagecheckerboard="0"
     inkscape:deskcolor="#d1d1d1"
     inkscape:document-units="px"
     showgrid="false"
     inkscape:zoom="11.313709"
     inkscape:cx="6.8942911"
     inkscape:cy="12.28598"
     inkscape:window-width="1916"
     inkscape:window-height="1065"
     inkscape:window-x="0"
     inkscape:window-y="0"
     inkscape:window-maximized="1"
     inkscape:current-layer="layer1" /><defs
     id="defs2" /><g
     inkscape:label="Layer 1"
     inkscape:groupmode="layer"
     id="layer1"><rect
       style="fill:#000000;fill-opacity:1;stroke-width:0.484181"
       id="rect130"
       width="24"
       height="24"
       x="0"
       y="0" /><path
       d="m 14.750424,20.052747 c -0.647982,0.422419 -1.269989,0.634312 -1.91387,0.704031 -0.627475,0.06835 -1.261786,0.0013 -1.957614,-0.132604 -1.3068992,-0.252904 -2.4825613,-0.913189 -3.2686149,-1.896097 -2.468891,-3.08543 0.3226238,-6.292528 0.5208458,-9.8318184 0.8626078,1.0526278 0.950099,1.6678004 1.1059434,3.0498874 0.016407,0.146274 0.030071,0.292548 0.041014,0.438822 0.3567996,-0.902252 0.624741,-1.853718 0.8106597,-2.7928812 0.406013,-2.0505739 0.427886,-3.5912381 0.02461,-5.6062691 1.495551,0.9022528 2.273402,2.0888509 3.125074,3.6377179 0.524947,0.9569347 1.028021,1.957615 1.47778,3.1947944 0.321257,-1.2740902 0.396445,-1.6869387 0.06425,-3.04852 3.907027,2.466157 4.222815,9.503727 -0.03008,12.282937 z"
       id="path880"
       sodipodi:nodetypes="ccccccccccccc"
       style="fill:#ffffff;stroke-width:0.136705" /></g></svg>
